<?xml version="1.0" encoding="UTF-8" standalone="no"?>
<!-- Created with Inkscape (http://www.inkscape.org/) -->

<svg
   width="202.65199mm"
   height="47.085129mm"
   viewBox="0 0 202.65199 47.085129"
   version="1.1"
   id="svg1"
   xml:space="preserve"
   xmlns:inkscape="http://www.inkscape.org/namespaces/inkscape"
   xmlns:sodipodi="http://sodipodi.sourceforge.net/DTD/sodipodi-0.dtd"
   xmlns="http://www.w3.org/2000/svg"
   xmlns:svg="http://www.w3.org/2000/svg"><sodipodi:namedview
     id="namedview1"
     pagecolor="#505050"
     bordercolor="#eeeeee"
     borderopacity="1"
     inkscape:showpageshadow="0"
     inkscape:pageopacity="0"
     inkscape:pagecheckerboard="0"
     inkscape:deskcolor="#505050"
     inkscape:document-units="mm"><inkscape:page
       x="0"
       y="0"
       width="202.65199"
       height="47.085129"
       id="page2"
       margin="0"
       bleed="0" /></sodipodi:namedview><defs
     id="defs1" /><g
     inkscape:label="Layer 1"
     inkscape:groupmode="layer"
     id="layer1"
     transform="translate(-2.5262124,-114.34108)"><g
       id="g19"
       transform="matrix(0.83982528,0,0,0.83982528,-29.762749,-143.20665)"><path
         style="fill:#000000"
         d="m 49.092263,323.90909 0.08077,-1.25992 H 59.2272 69.281366 v 1.19062 1.19063 l -10.134938,0.0693 -10.134938,0.0693 z"
         id="path19" /><path
         style="fill:#000000"
         d="m 221.65723,341.46711 c -0.0769,-0.20039 -0.10292,-0.94453 -0.0578,-1.65365 l 0.082,-1.2893 4.43177,-0.0725 4.43177,-0.0725 v 1.72619 1.72619 h -4.37393 c -3.4703,0 -4.40281,-0.0753 -4.51374,-0.36435 z"
         id="path18" /><path
         style="fill:#000000"
         d="m 179.00468,340.17781 0.0788,-1.65365 4.43177,-0.0725 4.43177,-0.0725 v 1.72619 1.72619 h -4.51054 -4.51054 z"
         id="path17" /><path
         style="fill:#000000"
         d="m 253.82824,341.96375 v -6.48229 l -1.25677,-0.002 -1.25678,-0.002 -0.071,-1.45341 -0.071,-1.45342 h 1.29464 1.29463 l 0.11894,-2.18281 c 0.16727,-3.06967 1.08018,-4.7048 3.24693,-5.81559 1.90745,-0.97787 6.92498,-0.96823 6.65757,0.0128 -0.0667,0.24475 -0.19662,0.89148 -0.28868,1.43718 l -0.16738,0.99219 h -1.55829 c -0.85706,0 -1.86364,0.1161 -2.23685,0.25799 -1.10196,0.41897 -1.73501,1.74789 -1.73614,3.64461 l -9.9e-4,1.65365 h 2.24895 2.24896 v 1.45521 1.45521 h -2.24896 -2.24895 v 6.48229 6.48229 h -1.98438 -1.98437 z"
         id="path16" /><path
         style="fill:#000000"
         d="m 142.43866,340.54236 v -7.90369 l 0.99219,-0.14255 c 1.95742,-0.28123 2.29925,-0.13093 2.46453,1.08366 0.0822,0.60395 0.22387,1.17255 0.31486,1.26354 0.091,0.091 0.55953,-0.20436 1.0412,-0.65634 1.47469,-1.38379 2.99923,-1.95879 5.26377,-1.98529 1.76594,-0.0207 2.13812,0.0635 3.10147,0.70098 1.95643,1.29469 2.0246,1.58417 2.11843,8.99493 l 0.0829,6.54844 h -1.84969 -1.84969 l -0.0853,-5.4901 c -0.0979,-6.29766 -0.24336,-6.86701 -1.89316,-7.40752 -1.50154,-0.49194 -3.13887,0.003 -4.58031,1.38391 l -1.15246,1.10425 v 5.20473 5.20473 h -1.98438 -1.98437 z"
         id="path15" /><path
         style="fill:#000000"
         d="m 264.32351,348.47484 -1.0141,-0.16089 2.78684,-3.95347 2.78685,-3.95347 -1.42873,-1.99965 c -0.7858,-1.09982 -2.04046,-2.86765 -2.78812,-3.92853 l -1.35939,-1.92887 2.33829,0.0768 2.33829,0.0768 1.7198,2.57073 c 0.94588,1.4139 1.79093,2.57476 1.87787,2.57969 0.087,0.005 0.95081,-1.18167 1.9197,-2.63688 l 1.7616,-2.64583 h 2.24046 2.24046 l -2.78677,3.82456 c -2.26746,3.11186 -2.73836,3.91305 -2.52699,4.29948 0.14288,0.2612 1.39838,2.08226 2.79001,4.04679 l 2.53023,3.57188 -2.00196,0.22009 c -2.40896,0.26484 -2.28625,0.35007 -4.47274,-3.10663 -0.87312,-1.38036 -1.65249,-2.51597 -1.73193,-2.52358 -0.0794,-0.008 -1.00514,1.29585 -2.05713,2.89658 l -1.91269,2.91041 -1.11788,-0.0375 c -0.61483,-0.0207 -1.57422,-0.10995 -2.13197,-0.19844 z"
         id="path14" /><path
         style="fill:#000000"
         d="m 173.13032,348.46884 c -0.45216,-0.1214 -1.45678,-1.27822 -3.175,-3.65599 -2.09024,-2.89262 -2.62947,-3.4811 -3.20193,-3.49445 -0.67384,-0.0157 -0.69197,0.0301 -0.85831,2.16676 -0.0935,1.20055 -0.17063,2.80789 -0.1715,3.57188 l -0.002,1.38906 h -1.85209 -1.85208 v -12.28141 -12.28142 l 1.87812,-0.0879 c 1.03296,-0.0483 1.9318,-4.5e-4 1.9974,0.10639 0.0656,0.10685 0.096,3.50013 0.0675,7.54063 l -0.0518,7.34637 0.63412,0.0691 c 0.52656,0.0574 1.05725,-0.46987 3.12894,-3.10886 l 2.49482,-3.17799 h 2.23393 c 2.08806,0 2.21046,0.0302 1.87453,0.46302 -0.19766,0.25466 -1.52106,1.86285 -2.94088,3.57376 l -2.58149,3.11074 1.12959,1.51947 c 0.62128,0.83571 2.054,2.75486 3.18383,4.26478 1.12983,1.50993 2.01963,2.77318 1.97733,2.80724 -0.22797,0.18356 -3.34934,0.31016 -3.91337,0.15873 z"
         id="path13" /><path
         id="path12"
         style="fill:#000000"
         d="m 241.92218,332.19678 c -3.09551,-0.006 -4.74775,0.58935 -6.49986,2.34146 -1.63376,1.63375 -2.33334,3.43241 -2.32234,5.97017 0.009,2.1571 0.39282,3.53547 1.41232,5.07463 0.99475,1.5018 2.34984,2.45662 4.23488,2.98431 1.96744,0.55075 5.07516,0.38035 6.77892,-0.37155 1.69209,-0.74676 3.10018,-2.14905 3.83852,-3.8225 0.47744,-1.08211 0.59865,-1.85188 0.60875,-3.86489 0.0112,-2.23134 -0.0704,-2.68438 -0.72864,-4.02972 -0.80387,-1.64306 -1.99542,-2.77846 -3.87521,-3.69383 -0.94579,-0.46056 -1.67295,-0.58508 -3.44734,-0.58808 z m -0.37155,2.90473 c 1.54743,-0.0324 3.05255,0.73786 3.77031,2.16989 1.41752,2.82813 0.83417,6.47692 -1.28622,8.04654 -0.88664,0.65635 -3.07313,0.86415 -4.09691,0.38912 -1.7916,-0.83129 -2.78144,-2.70757 -2.77244,-5.25601 0.007,-1.93637 0.63405,-3.54365 1.71514,-4.39404 0.79783,-0.62758 1.74166,-0.93607 2.67012,-0.9555 z" /><path
         id="path10"
         style="fill:#000000"
         d="m 210.57423,332.19006 c -1.81048,0.0119 -2.67703,0.14636 -3.59048,0.55707 -3.80496,1.71078 -5.60699,5.59809 -4.63021,9.98854 0.6754,3.03576 2.36833,4.92716 5.25859,5.87561 0.71518,0.23467 1.91943,0.32818 3.41478,0.26458 3.72096,-0.15814 5.86137,-1.50472 7.39955,-4.65501 0.83074,-1.70135 0.84245,-5.41439 0.0227,-7.21351 -0.94498,-2.07406 -1.86129,-3.04772 -3.73776,-3.97134 -1.59582,-0.78543 -1.96174,-0.86034 -4.13721,-0.84594 z m -0.1416,3.02669 c 1.38809,0 1.82533,0.11577 2.56109,0.67696 2.97005,2.26537 2.71265,7.99066 -0.43047,9.57564 -0.6493,0.32742 -1.54653,0.59531 -1.99419,0.59531 -0.44765,0 -1.3399,-0.26789 -1.98283,-0.59531 -1.59011,-0.80979 -2.3828,-2.33062 -2.3828,-4.57233 0,-2.50979 0.24194,-3.26653 1.45004,-4.52737 1.07594,-1.12288 1.14865,-1.1529 2.77916,-1.1529 z" /><path
         style="fill:#000000"
         d="m 195.49707,348.587 c -2.54682,-0.68352 -3.05217,-2.13275 -3.05217,-8.75292 v -4.3526 h -1.19062 -1.19063 v -1.44071 -1.44072 l 1.25677,-0.0806 1.25678,-0.0806 0.0761,-2.4474 0.0761,-2.44739 h 1.84216 1.84215 v 2.51354 2.51354 h 2.11667 2.11667 v 1.45521 1.45521 h -2.13372 -2.13373 l 0.0832,4.62354 c 0.0783,4.35297 0.11725,4.65755 0.66515,5.20481 0.46326,0.46272 0.8665,0.57479 1.9772,0.54949 1.59839,-0.0364 1.79669,0.14993 1.80242,1.69377 0.004,1.0119 -0.0562,1.10345 -0.82277,1.25677 -1.27813,0.25563 -3.14224,0.16507 -4.58768,-0.22286 z"
         id="path8" /><path
         id="path7"
         style="fill:#000000"
         d="m 132.85597,332.21073 c -2.3682,-0.11202 -5.60712,0.36373 -7.13858,1.18236 -0.42102,0.22505 -0.41923,0.30674 0.0253,1.29966 0.26089,0.58272 0.5328,1.11777 0.6041,1.18907 0.0713,0.0713 1.0718,-0.11421 2.22364,-0.41186 3.79819,-0.98147 6.19548,0.0419 6.19548,2.64429 v 0.80666 H 132.95 c -4.1134,0 -7.17173,1.18534 -8.17211,3.16674 -1.30426,2.58328 -0.41371,5.18935 2.18282,6.38772 2.18792,1.00979 5.90417,0.34797 7.38301,-1.31465 0.70836,-0.79639 0.90739,-0.71211 1.00149,0.4253 l 0.0822,0.99219 h 1.5875 1.5875 l -0.0212,-6.08542 c -0.0195,-5.66525 -0.0595,-6.16045 -0.58343,-7.17631 -0.67716,-1.31299 -1.80708,-2.31035 -3.15898,-2.78846 -0.50042,-0.17697 -1.19343,-0.27995 -1.98283,-0.31729 z m 1.90996,9.02684 v 1.43764 c 0,1.5587 -0.42213,2.25318 -1.80299,2.96726 -1.28875,0.66643 -2.48188,0.74584 -3.48609,0.23254 -1.64255,-0.83958 -1.74123,-2.72347 -0.20257,-3.86901 0.56856,-0.4233 1.244,-0.56554 3.10885,-0.65474 z" /><path
         id="path5"
         style="fill:#000000"
         d="m 105.92635,323.57508 v 12.02924 c 0,13.8525 -0.36705,12.31304 3.08973,12.96717 2.5125,0.47543 6.32004,0.35041 8.08737,-0.26562 1.73675,-0.60537 3.69331,-2.43528 4.43952,-4.15168 1.3964,-3.21195 0.88581,-7.84927 -1.11415,-10.12135 -2.20893,-2.50947 -6.51192,-2.58937 -9.26506,-0.17208 -0.51795,0.45477 -1.01546,0.82682 -1.10536,0.82682 -0.0899,0 -0.1633,-2.50032 -0.1633,-5.55625 v -5.55625 h -1.98437 z m 8.64082,11.63547 c 1.17808,0.0342 2.24775,0.64358 2.93935,1.82004 0.63062,1.07277 0.72047,1.49813 0.70487,3.34553 -0.0256,3.04267 -1.01848,4.59269 -3.39308,5.29787 -1.41003,0.41874 -2.19718,0.45096 -3.49126,0.14159 -1.43711,-0.34352 -1.43195,-0.32957 -1.43195,-4.23333 v -3.65714 l 1.08417,-1.08417 c 1.12373,-1.12373 2.40981,-1.66462 3.5879,-1.63039 z" /><path
         style="fill:#12ae46;fill-opacity:1"
         d="m 85.870742,348.65771 c -0.209481,-0.20949 -0.3175,-1.33468 -0.3175,-3.3073 0,-1.64438 -0.02976,-3.01648 -0.06614,-3.04911 -0.03638,-0.0326 -5.423959,-0.12192 -11.972396,-0.19844 l -11.90625,-0.13911 v -2.51354 -2.51355 l 3.554427,-0.0742 c 2.06818,-0.0431 3.700014,-0.19499 3.902604,-0.36313 0.191498,-0.15892 0.346355,-0.66133 0.344126,-1.11646 -0.0083,-1.68997 0.460517,-1.61364 -10.437127,-1.69943 l -9.931738,-0.0782 v -1.31087 c 0,-0.72099 0.02977,-1.33858 0.06615,-1.37243 0.03638,-0.0339 8.221927,-0.12315 18.190104,-0.19844 l 18.123958,-0.13688 0.132291,-3.175 0.132292,-3.175 0.838997,-0.0814 c 0.766224,-0.0743 1.374386,0.41699 7.011459,5.66396 3.394853,3.15992 6.269019,5.90761 6.387033,6.10596 0.464398,0.78054 0.785638,0.44134 -9.164277,9.67654 -1.998979,1.85539 -3.845106,3.37344 -4.102505,3.37344 -0.257399,0 -0.610874,-0.14288 -0.785499,-0.3175 z"
         id="path3" /><path
         style="fill:#000000"
         d="m 51.198136,353.17866 c -0.133086,-0.35977 -0.672364,-0.71345 -1.512828,-0.99219 -1.422935,-0.47191 -1.524141,-0.65436 -0.87296,-1.57372 0.42917,-0.60592 0.44607,-0.60763 1.880484,-0.19063 1.703314,0.49516 2.845828,0.23329 2.845828,-0.65229 0,-0.57983 -0.500543,-0.86709 -2.303074,-1.32172 -0.611847,-0.15431 -1.47505,-0.58568 -1.918229,-0.95859 -0.647319,-0.54468 -0.80578,-0.88335 -0.80578,-1.72214 0,-1.3612 0.579429,-2.20521 1.867813,-2.72072 0.729121,-0.29174 1.042603,-0.57692 1.042603,-0.94848 0,-0.79896 1.516922,-0.76023 1.635244,0.0418 0.05484,0.37172 0.382565,0.67383 0.932782,0.85989 1.311116,0.44336 1.525405,0.77662 1.007556,1.56696 -0.387408,0.59126 -0.530324,0.6413 -1.149112,0.40237 -1.03885,-0.40114 -2.428291,-0.33886 -2.897,0.12985 -0.602784,0.60278 -0.05376,1.11694 1.608114,1.50598 2.639833,0.61799 3.584217,1.66663 3.270345,3.63136 -0.167455,1.0482 -1.173809,2.09391 -2.149561,2.23362 -0.326267,0.0467 -0.571905,0.31179 -0.623124,0.67242 -0.117306,0.82597 -1.556585,0.85405 -1.859101,0.0363 z"
         id="path2" /><path
         style="fill:#000000"
         d="m 40.569949,362.25094 c -0.575351,-0.30118 -1.147614,-0.92281 -1.522313,-1.65364 l -0.600399,-1.17105 0.07123,-25.04997 c 0.07108,-24.99709 0.07241,-25.05154 0.628055,-25.79687 0.306254,-0.4108 0.961097,-0.98503 1.455209,-1.27607 0.868122,-0.51134 1.455416,-0.53203 17.434843,-0.61405 11.546639,-0.0593 16.948801,0.005 17.902982,0.21237 1.303586,0.28356 1.522937,0.46899 4.7625,4.02601 1.867786,2.05083 3.582843,3.91979 3.811236,4.15326 0.228394,0.23347 1.161165,1.30241 2.072826,2.37542 1.252237,1.47388 1.620644,2.08852 1.506581,2.51355 -0.08304,0.30943 -0.15261,0.71143 -0.154597,0.89333 -0.0056,0.514 -11.072291,0.46669 -12.315235,-0.0526 -0.504649,-0.21085 -0.940644,-0.41921 -0.968877,-0.46302 -0.02823,-0.0438 -0.11753,-2.34183 -0.198438,-5.10672 L 74.308448,310.2138 H 58.301157 42.293865 l -0.06754,24.18058 c -0.05016,17.95891 0.01095,24.27516 0.237546,24.54819 0.256691,0.30929 3.658346,0.35583 21.442368,0.29338 18.446226,-0.0648 21.169208,-0.12476 21.388089,-0.47111 0.137947,-0.21828 0.252636,-1.91492 0.254864,-3.77031 l 0.0041,-3.37344 h 1.71979 1.719792 v 4.17131 c 0,4.72626 -0.249807,5.58966 -1.868399,6.45772 -0.852698,0.45731 -2.111507,0.48347 -23.267017,0.48347 -21.132805,0 -22.416361,-0.0266 -23.287461,-0.4826 z"
         id="path1" /></g></g></svg>
